<svg xmlns="http://www.w3.org/2000/svg" viewBox="0 0 512 512" width="100%" height="100%">
  <defs>
    <!-- Background Gradient (Pitch Black to Deep Charcoal) -->
    <linearGradient id="bg-grad" x1="0%" y1="0%" x2="100%" y2="100%">
      <stop offset="0%" stop-color="#090A0D" />
      <stop offset="50%" stop-color="#111318" />
      <stop offset="100%" stop-color="#181B22" />
    </linearGradient>

    <!-- App Icon Border Gradient -->
    <linearGradient id="border-grad" x1="0%" y1="0%" x2="0%" y2="100%">
      <stop offset="0%" stop-color="#3A3F50" stop-opacity="0.6" />
      <stop offset="100%" stop-color="#12141B" stop-opacity="0.8" />
    </linearGradient>

    <!-- Watch Strap Matte Gradient -->
    <linearGradient id="strap-grad" x1="0%" y1="0%" x2="100%" y2="0%">
      <stop offset="0%" stop-color="#15161A" />
      <stop offset="50%" stop-color="#24262D" />
      <stop offset="100%" stop-color="#15161A" />
    </linearGradient>

    <!-- Watch Metallic Body Gradient -->
    <linearGradient id="metal-body" x1="0%" y1="0%" x2="100%" y2="100%">
      <stop offset="0%" stop-color="#2D313B" />
      <stop offset="30%" stop-color="#1B1C22" />
      <stop offset="70%" stop-color="#0F1014" />
      <stop offset="100%" stop-color="#1E2129" />
    </linearGradient>

    <!-- Watch Crown Gradient -->
    <linearGradient id="crown-grad" x1="0%" y1="0%" x2="0%" y2="100%">
      <stop offset="0%" stop-color="#484D5C" />
      <stop offset="50%" stop-color="#1B1D24" />
      <stop offset="100%" stop-color="#313540" />
    </linearGradient>

    <!-- Screen AMOLED Glow Background -->
    <radialGradient id="screen-glow" cx="50%" cy="50%" r="70%">
      <stop offset="0%" stop-color="#0C203E" stop-opacity="1" />
      <stop offset="60%" stop-color="#05070A" stop-opacity="1" />
      <stop offset="100%" stop-color="#020304" stop-opacity="1" />
    </radialGradient>

    <!-- Sync Glow Filter -->
    <filter id="glow" x="-30%" y="-30%" width="160%" height="160%">
      <feGaussianBlur stdDeviation="7" result="blur" />
      <feMerge>
        <feMergeNode in="blur" />
        <feMergeNode in="blur" />
        <feMergeNode in="SourceGraphic" />
      </feMerge>
    </filter>

    <!-- Soft Drop Shadow for Watch Body -->
    <filter id="watch-shadow" x="-20%" y="-10%" width="140%" height="130%">
      <feGaussianBlur stdDeviation="12" result="blur" />
      <feColorMatrix type="matrix" values="0 0 0 0 0   0 0 0 0 0   0 0 0 0 0  0 0 0 0.8 0"/>
      <feOffset dx="0" dy="16" />
      <feMerge>
        <feMergeNode />
        <feMergeNode in="SourceGraphic" />
      </feMerge>
    </filter>

    <!-- Sync Arrow Gradient 1 -->
    <linearGradient id="sync-grad-1" x1="0%" y1="0%" x2="100%" y2="100%">
      <stop offset="0%" stop-color="#00F2FE" />
      <stop offset="100%" stop-color="#4FACFE" />
    </linearGradient>

    <!-- Sync Arrow Gradient 2 -->
    <linearGradient id="sync-grad-2" x1="0%" y1="0%" x2="100%" y2="100%">
      <stop offset="0%" stop-color="#4FACFE" />
      <stop offset="100%" stop-color="#00F2FE" />
    </linearGradient>

    <!-- Screen Glass Shine Gradient -->
    <linearGradient id="glass-shine" x1="0%" y1="0%" x2="100%" y2="100%">
      <stop offset="0%" stop-color="#FFFFFF" stop-opacity="0.15" />
      <stop offset="30%" stop-color="#FFFFFF" stop-opacity="0.08" />
      <stop offset="40%" stop-color="#FFFFFF" stop-opacity="0" />
      <stop offset="100%" stop-color="#FFFFFF" stop-opacity="0" />
    </linearGradient>

    <!-- Clip Path for Screen Content to Prevent Spilling Over Bezel -->
    <clipPath id="screen-clip">
      <rect x="178" y="138" width="156" height="236" rx="28" />
    </clipPath>
  </defs>

  <!-- App Icon Background Squircle -->
  <rect x="32" y="32" width="448" height="448" rx="104" fill="url(#bg-grad)" stroke="url(#border-grad)" stroke-width="4" />

  <!-- WATCH ASSEMBLY -->
  <g filter="url(#watch-shadow)">
    
    <!-- Top Strap (with sporty ribbed texture) -->
    <path d="M 201 130 L 201 72 A 16 16 0 0 1 217 56 L 295 56 A 16 16 0 0 1 311 72 L 311 130 Z" fill="url(#strap-grad)" />
    <!-- Top Strap Ribs -->
    <line x1="220" y1="76" x2="292" y2="76" stroke="#101114" stroke-width="3" stroke-linecap="round" />
    <line x1="225" y1="90" x2="287" y2="90" stroke="#101114" stroke-width="3" stroke-linecap="round" />
    <line x1="230" y1="104" x2="282" y2="104" stroke="#101114" stroke-width="3" stroke-linecap="round" />

    <!-- Bottom Strap (with sporty ribbed texture) -->
    <path d="M 201 382 L 201 440 A 16 16 0 0 0 217 456 L 295 456 A 16 16 0 0 0 311 440 L 311 382 Z" fill="url(#strap-grad)" />
    <!-- Bottom Strap Ribs -->
    <line x1="220" y1="436" x2="292" y2="436" stroke="#101114" stroke-width="3" stroke-linecap="round" />
    <line x1="225" y1="422" x2="287" y2="422" stroke="#101114" stroke-width="3" stroke-linecap="round" />
    <line x1="230" y1="408" x2="282" y2="408" stroke="#101114" stroke-width="3" stroke-linecap="round" />

    <!-- Watch Crown (Rotary Button) on Right Side -->
    <rect x="345" y="231" width="9" height="50" rx="3.5" fill="url(#crown-grad)" stroke="#16171C" stroke-width="1" />
    <!-- Crown Ridges -->
    <line x1="345" y1="238" x2="354" y2="238" stroke="#101114" stroke-width="1.5" />
    <line x1="345" y1="244" x2="354" y2="244" stroke="#101114" stroke-width="1.5" />
    <line x1="345" y1="250" x2="354" y2="250" stroke="#101114" stroke-width="1.5" />
    <line x1="345" y1="256" x2="354" y2="256" stroke="#101114" stroke-width="1.5" />
    <line x1="345" y1="262" x2="354" y2="262" stroke="#101114" stroke-width="1.5" />
    <line x1="345" y1="268" x2="354" y2="268" stroke="#101114" stroke-width="1.5" />
    <line x1="345" y1="274" x2="354" y2="274" stroke="#101114" stroke-width="1.5" />

    <!-- Outer Watch Chassis (Vertical Rectangle) -->
    <rect x="166" y="126" width="180" height="260" rx="40" fill="url(#metal-body)" stroke="#111215" stroke-width="1.5" />
    
    <!-- Outer Metallic Inner Chamfer/Bevel -->
    <rect x="170" y="130" width="172" height="252" rx="36" fill="none" stroke="#4F5466" stroke-width="1.2" opacity="0.8" />
    
    <!-- Screen Bezel (Jet Black) -->
    <rect x="174" y="134" width="164" height="244" rx="32" fill="#050608" />

    <!-- Screen Display Area (AMOLED Active Glow) -->
    <rect x="178" y="138" width="156" height="236" rx="28" fill="url(#screen-glow)" />

    <!-- SCREEN CONTENT (Clipped to prevent bleeding over round edges) -->
    <g clip-path="url(#screen-clip)">
      
      <!-- Ambient Outer Wave Rings (Data Sync Radar Effect) -->
      <circle cx="256" cy="256" r="102" stroke="#1F3254" stroke-width="1" stroke-dasharray="3 18" fill="none" opacity="0.6" />
      <circle cx="256" cy="256" r="88" stroke="#00F2FE" stroke-width="1.5" stroke-dasharray="6 8" fill="none" opacity="0.25" />
      <circle cx="256" cy="256" r="74" stroke="#4FACFE" stroke-width="1" stroke-dasharray="2 12" fill="none" opacity="0.4" />
      
      <!-- Top Status Bar: Time -->
      <text x="256" y="161" font-family="-apple-system, BlinkMacSystemFont, 'Segoe UI', Roboto, Helvetica, Arial, sans-serif" font-size="10" font-weight="600" fill="#E2E8F0" letter-spacing="0.5" text-anchor="middle" opacity="0.9">10:09</text>
      
      <!-- Top Status Bar: Wireless Signal Icon (Left) -->
      <g opacity="0.8">
        <rect x="194" y="156" width="2" height="3" fill="#64748B" rx="0.5" />
        <rect x="198" y="153" width="2" height="6" fill="#64748B" rx="0.5" />
        <rect x="202" y="150" width="2" height="9" fill="#00F2FE" rx="0.5" />
      </g>

      <!-- Top Status Bar: Battery Icon (Right) -->
      <g opacity="0.8">
        <rect x="304" y="151" width="14" height="8" rx="2" fill="none" stroke="#64748B" stroke-width="1" />
        <rect x="306" y="153" width="8" height="4" rx="0.75" fill="#00F2FE" />
        <path d="M 319 153 L 319 157" stroke="#64748B" stroke-width="1" stroke-linecap="round" />
      </g>

      <!-- CENTRAL SYNCING ARROWS SYSTEM -->
      <!-- Scale group to perfectly position the custom-drawn 160px sync arrows in the viewport -->
      <g transform="translate(256, 256) scale(0.62) translate(-256, -256)" filter="url(#glow)">
        <!-- Glowing Core Pulse -->
        <circle cx="256" cy="256" r="45" fill="#00F2FE" opacity="0.1" filter="blur(8px)"/>
        
        <!-- Sync Arrow 1 (Top/Right Clockwise) -->
        <path d="M256,196 C289.1,196 316,222.9 316,256 C316,264.8 314.1,273.2 310.7,280.8 L324.8,294.9 C331.8,283.4 336,270.2 336,256 C336,211.8 300.2,176 256,176 L256,160 L226,186 L256,212 L256,196 Z" fill="url(#sync-grad-1)" />
        
        <!-- Sync Arrow 2 (Bottom/Left Clockwise) -->
        <path d="M256,316 C222.9,316 196,289.1 196,256 C196,247.2 197.9,238.8 201.3,231.2 L187.2,217.1 C180.2,228.6 176,241.8 176,256 C176,300.2 211.8,336 256,336 L256,352 L286,326 L256,300 L256,316 Z" fill="url(#sync-grad-2)" />
      </g>

      <!-- Sync Transfer Particles (Floating data units) -->
      <circle cx="316" cy="210" r="3" fill="#00F2FE" filter="url(#glow)" />
      <circle cx="196" cy="302" r="2.5" fill="#4FACFE" filter="url(#glow)" opacity="0.8" />
      <circle cx="282" cy="298" r="2" fill="#00F2FE" opacity="0.6" />
      <circle cx="220" cy="204" r="1.5" fill="#FFFFFF" opacity="0.5" />

      <!-- Bottom Status: SYNCING text -->
      <text x="256" y="348" font-family="-apple-system, BlinkMacSystemFont, 'Segoe UI', Roboto, Helvetica, Arial, sans-serif" font-size="9.5" font-weight="800" fill="#00F2FE" letter-spacing="4.5" text-anchor="middle" filter="url(#glow)" opacity="0.95">SYNCING</text>
      
      <!-- Diagonal Glass Sheen/Reflection Overlay -->
      <path d="M 178 138 L 290 138 L 178 330 Z" fill="url(#glass-shine)" pointer-events="none" />
      
    </g> <!-- End of Clipped Screen Content -->

  </g> <!-- End of Watch Assembly -->
</svg>